<mxfile host="65bd71144e">
    <diagram id="SxasbjcM-4UoG9tOeqMN" name="Page-1">
        <mxGraphModel dx="866" dy="740" grid="0" gridSize="10" guides="1" tooltips="1" connect="1" arrows="1" fold="1" page="1" pageScale="1" pageWidth="827" pageHeight="1169" math="0" shadow="0">
            <root>
                <mxCell id="0"/>
                <mxCell id="1" parent="0"/>
                <mxCell id="43" value="" style="ellipse;shape=cloud;whiteSpace=wrap;html=1;shadow=1;strokeColor=#EDE96B;fillColor=#FF6666;" vertex="1" parent="1">
                    <mxGeometry x="110" y="190" width="576" height="210" as="geometry"/>
                </mxCell>
                <mxCell id="8" value="" style="edgeStyle=none;html=1;" edge="1" parent="1" source="2" target="4">
                    <mxGeometry relative="1" as="geometry"/>
                </mxCell>
                <mxCell id="11" style="edgeStyle=none;html=1;entryX=0.5;entryY=1;entryDx=0;entryDy=0;" edge="1" parent="1" source="2" target="3">
                    <mxGeometry relative="1" as="geometry"/>
                </mxCell>
                <mxCell id="2" value="" style="sketch=0;points=[[0.5,0,0],[1,0.5,0],[0.5,1,0],[0,0.5,0],[0.145,0.145,0],[0.8555,0.145,0],[0.855,0.8555,0],[0.145,0.855,0]];verticalLabelPosition=bottom;html=1;verticalAlign=top;aspect=fixed;align=center;pointerEvents=1;shape=mxgraph.cisco19.rect;prIcon=router;fillColor=#FAFAFA;strokeColor=#005073;" vertex="1" parent="1">
                    <mxGeometry x="264" y="200" width="50" height="50" as="geometry"/>
                </mxCell>
                <mxCell id="3" value="" style="aspect=fixed;perimeter=ellipsePerimeter;html=1;align=center;shadow=1;dashed=0;spacingTop=3;image;image=img/lib/active_directory/internet_cloud.svg;fillColor=#1D030B;" vertex="1" parent="1">
                    <mxGeometry x="194" y="70" width="95.24" height="60" as="geometry"/>
                </mxCell>
                <mxCell id="4" value="" style="aspect=fixed;perimeter=ellipsePerimeter;html=1;align=center;shadow=0;dashed=0;spacingTop=3;image;image=img/lib/active_directory/internet_cloud.svg;" vertex="1" parent="1">
                    <mxGeometry x="294" y="70" width="95.24" height="60" as="geometry"/>
                </mxCell>
                <mxCell id="5" value="" style="aspect=fixed;perimeter=ellipsePerimeter;html=1;align=center;shadow=0;dashed=0;spacingTop=3;image;image=img/lib/active_directory/internet_cloud.svg;" vertex="1" parent="1">
                    <mxGeometry x="434" y="70" width="95.24" height="60" as="geometry"/>
                </mxCell>
                <mxCell id="6" value="" style="aspect=fixed;perimeter=ellipsePerimeter;html=1;align=center;shadow=0;dashed=0;spacingTop=3;image;image=img/lib/active_directory/internet_cloud.svg;" vertex="1" parent="1">
                    <mxGeometry x="538" y="70" width="95.24" height="60" as="geometry"/>
                </mxCell>
                <mxCell id="13" style="edgeStyle=none;html=1;entryX=0.64;entryY=1;entryDx=0;entryDy=0;entryPerimeter=0;" edge="1" parent="1" source="12" target="5">
                    <mxGeometry relative="1" as="geometry"/>
                </mxCell>
                <mxCell id="15" style="edgeStyle=none;html=1;entryX=0.25;entryY=1;entryDx=0;entryDy=0;" edge="1" parent="1" source="12" target="6">
                    <mxGeometry relative="1" as="geometry"/>
                </mxCell>
                <mxCell id="12" value="" style="sketch=0;points=[[0.5,0,0],[1,0.5,0],[0.5,1,0],[0,0.5,0],[0.145,0.145,0],[0.8555,0.145,0],[0.855,0.8555,0],[0.145,0.855,0]];verticalLabelPosition=bottom;html=1;verticalAlign=top;aspect=fixed;align=center;pointerEvents=1;shape=mxgraph.cisco19.rect;prIcon=router;fillColor=#FAFAFA;strokeColor=#005073;" vertex="1" parent="1">
                    <mxGeometry x="508" y="200" width="50" height="50" as="geometry"/>
                </mxCell>
                <mxCell id="21" value="" style="edgeStyle=none;html=1;" edge="1" parent="1" source="16" target="2">
                    <mxGeometry relative="1" as="geometry"/>
                </mxCell>
                <mxCell id="22" style="edgeStyle=none;html=1;entryX=0.145;entryY=0.855;entryDx=0;entryDy=0;entryPerimeter=0;" edge="1" parent="1" source="16" target="12">
                    <mxGeometry relative="1" as="geometry"/>
                </mxCell>
                <mxCell id="16" value="R1" style="sketch=0;points=[[0.5,0,0],[1,0.5,0],[0.5,1,0],[0,0.5,0],[0.145,0.145,0],[0.8555,0.145,0],[0.855,0.8555,0],[0.145,0.855,0]];verticalLabelPosition=bottom;html=1;verticalAlign=top;aspect=fixed;align=center;pointerEvents=1;shape=mxgraph.cisco19.rect;prIcon=router;fillColor=#FAFAFA;strokeColor=#005073;" vertex="1" parent="1">
                    <mxGeometry x="264" y="320" width="50" height="50" as="geometry"/>
                </mxCell>
                <mxCell id="18" value="" style="edgeStyle=none;html=1;" edge="1" parent="1" source="17" target="12">
                    <mxGeometry relative="1" as="geometry"/>
                </mxCell>
                <mxCell id="19" style="edgeStyle=none;html=1;entryX=1;entryY=0.5;entryDx=0;entryDy=0;entryPerimeter=0;" edge="1" parent="1" source="17" target="16">
                    <mxGeometry relative="1" as="geometry"/>
                </mxCell>
                <mxCell id="20" style="edgeStyle=none;html=1;entryX=0.855;entryY=0.8555;entryDx=0;entryDy=0;entryPerimeter=0;" edge="1" parent="1" source="17" target="2">
                    <mxGeometry relative="1" as="geometry"/>
                </mxCell>
                <mxCell id="17" value="R2" style="sketch=0;points=[[0.5,0,0],[1,0.5,0],[0.5,1,0],[0,0.5,0],[0.145,0.145,0],[0.8555,0.145,0],[0.855,0.8555,0],[0.145,0.855,0]];verticalLabelPosition=bottom;html=1;verticalAlign=top;aspect=fixed;align=center;pointerEvents=1;shape=mxgraph.cisco19.rect;prIcon=router;fillColor=#FAFAFA;strokeColor=#005073;" vertex="1" parent="1">
                    <mxGeometry x="508" y="320" width="50" height="50" as="geometry"/>
                </mxCell>
                <mxCell id="24" value="ISP 1&lt;br&gt;" style="text;html=1;strokeColor=none;fillColor=none;align=center;verticalAlign=middle;whiteSpace=wrap;rounded=0;" vertex="1" parent="1">
                    <mxGeometry x="211.62" y="40" width="60" height="30" as="geometry"/>
                </mxCell>
                <mxCell id="25" value="ISP 2" style="text;html=1;strokeColor=none;fillColor=none;align=center;verticalAlign=middle;whiteSpace=wrap;rounded=0;" vertex="1" parent="1">
                    <mxGeometry x="314" y="40" width="60" height="30" as="geometry"/>
                </mxCell>
                <mxCell id="26" value="ISP 3" style="text;html=1;strokeColor=none;fillColor=none;align=center;verticalAlign=middle;whiteSpace=wrap;rounded=0;" vertex="1" parent="1">
                    <mxGeometry x="451.62" y="40" width="60" height="30" as="geometry"/>
                </mxCell>
                <mxCell id="27" value="ISP 4" style="text;html=1;strokeColor=none;fillColor=none;align=center;verticalAlign=middle;whiteSpace=wrap;rounded=0;" vertex="1" parent="1">
                    <mxGeometry x="555.62" y="40" width="60" height="30" as="geometry"/>
                </mxCell>
                <mxCell id="28" value="&lt;h1&gt;Suggestion 1:&lt;/h1&gt;&lt;div&gt;- BGP Multihome with IP SLA&lt;/div&gt;" style="text;html=1;strokeColor=none;fillColor=none;spacing=5;spacingTop=-20;whiteSpace=wrap;overflow=hidden;rounded=0;shadow=1;" vertex="1" parent="1">
                    <mxGeometry x="0.62" y="710" width="240" height="340" as="geometry"/>
                </mxCell>
                <mxCell id="29" value="&lt;h1&gt;Suggestion 2:&lt;/h1&gt;&lt;p&gt;AAAA&lt;/p&gt;" style="text;html=1;strokeColor=none;fillColor=none;spacing=5;spacingTop=-20;whiteSpace=wrap;overflow=hidden;rounded=0;shadow=1;" vertex="1" parent="1">
                    <mxGeometry x="240.62" y="710" width="279.38" height="280" as="geometry"/>
                </mxCell>
                <mxCell id="30" value="&lt;h1&gt;Suggestion 2:&lt;/h1&gt;&lt;p&gt;AAAA&lt;/p&gt;" style="text;html=1;strokeColor=none;fillColor=none;spacing=5;spacingTop=-20;whiteSpace=wrap;overflow=hidden;rounded=0;shadow=1;" vertex="1" parent="1">
                    <mxGeometry x="520" y="710" width="279.38" height="280" as="geometry"/>
                </mxCell>
                <mxCell id="31" value="&lt;h1&gt;R1 (AS10)&lt;/h1&gt;&lt;div&gt;R1 &amp;lt;-&amp;gt; R2 (10.0.0.1 - 10.0.0.2/30)&lt;/div&gt;&lt;div&gt;R1 &amp;lt;-&amp;gt; R3 (10.0.0.5 - 10.0.0.6/30)&lt;/div&gt;&lt;div&gt;R1 &amp;lt;-&amp;gt; R4 (10.0.0.9 - 10.0.0.10/30)&lt;/div&gt;&lt;div&gt;&lt;br&gt;&lt;/div&gt;&lt;div&gt;R1 Lo0 (1.1.1.1/24)&lt;/div&gt;" style="text;html=1;strokeColor=none;fillColor=none;spacing=5;spacingTop=-20;whiteSpace=wrap;overflow=hidden;rounded=0;shadow=1;" vertex="1" parent="1">
                    <mxGeometry y="400" width="200" height="160" as="geometry"/>
                </mxCell>
                <mxCell id="33" value="R4" style="text;html=1;strokeColor=none;fillColor=none;align=center;verticalAlign=middle;whiteSpace=wrap;rounded=0;" vertex="1" parent="1">
                    <mxGeometry x="558" y="210" width="60" height="30" as="geometry"/>
                </mxCell>
                <mxCell id="34" value="R3" style="text;html=1;strokeColor=none;fillColor=none;align=center;verticalAlign=middle;whiteSpace=wrap;rounded=0;" vertex="1" parent="1">
                    <mxGeometry x="194" y="210" width="60" height="30" as="geometry"/>
                </mxCell>
                <mxCell id="35" value="&lt;h1&gt;R2 (AS10)&lt;/h1&gt;&lt;div&gt;R2 &amp;lt;-&amp;gt; R1 (10.0.0.13 - 10.0.0.14/32)&lt;/div&gt;&lt;div&gt;R2 &amp;lt;-&amp;gt; R3 (10.0.0.17 - 10.0.0.18/32)&lt;/div&gt;&lt;div&gt;R2 &amp;lt;-&amp;gt; R4 (10.0.0.21 - 10.0.0.22/32)&lt;/div&gt;&lt;div&gt;&lt;br&gt;&lt;/div&gt;&lt;div&gt;R2 Lo0 (1.1.1.1/24)&lt;/div&gt;" style="text;html=1;strokeColor=none;fillColor=none;spacing=5;spacingTop=-20;whiteSpace=wrap;overflow=hidden;rounded=0;shadow=1;" vertex="1" parent="1">
                    <mxGeometry x="194" y="400" width="206" height="160" as="geometry"/>
                </mxCell>
                <mxCell id="36" value="&lt;h1&gt;R3 (AS10)&lt;/h1&gt;&lt;div&gt;R3 &amp;lt;-&amp;gt; R1 (10.0.0.6 - 10.0.0.5/32)&lt;/div&gt;&lt;div&gt;R3 &amp;lt;-&amp;gt; R2 (10.0.0.18 - 10.0.0.17/32)&lt;/div&gt;&lt;div&gt;&lt;br&gt;&lt;/div&gt;&lt;div&gt;R3 &amp;lt;-&amp;gt; ISP1 (5.0.0.1 - 5.0.0.2/32)&lt;/div&gt;&lt;div&gt;R3 &amp;lt;-&amp;gt; ISP2 (5.0.0.5 - 5.0.0.6/32)&lt;/div&gt;" style="text;html=1;strokeColor=none;fillColor=none;spacing=5;spacingTop=-20;whiteSpace=wrap;overflow=hidden;rounded=0;shadow=1;" vertex="1" parent="1">
                    <mxGeometry x="400" y="400" width="215.62" height="160" as="geometry"/>
                </mxCell>
                <mxCell id="37" value="&lt;h1&gt;R4 (AS10)&lt;/h1&gt;&lt;div&gt;R4 &amp;lt;-&amp;gt; R1 (10.0.0.10 - 10.0.0.9/32)&lt;/div&gt;&lt;div&gt;R4 &amp;lt;-&amp;gt; R2 (10.0.0.21 - 10.0.0.22/32)&lt;/div&gt;&lt;div&gt;&lt;br&gt;&lt;/div&gt;&lt;div&gt;R4 &amp;lt;-&amp;gt; ISP3 (5.0.0.9 - 5.0.0.10/32)&lt;/div&gt;&lt;div&gt;R4 &amp;lt;-&amp;gt; ISP4 (5.0.0.13 - 5.0.0.014/32)&lt;/div&gt;&lt;div&gt;&lt;br&gt;&lt;/div&gt;" style="text;html=1;strokeColor=none;fillColor=none;spacing=5;spacingTop=-20;whiteSpace=wrap;overflow=hidden;rounded=0;shadow=1;" vertex="1" parent="1">
                    <mxGeometry x="615.62" y="400" width="214.38" height="160" as="geometry"/>
                </mxCell>
                <mxCell id="38" value="&lt;h1&gt;ISP1 (AS11)&lt;/h1&gt;&lt;div&gt;ISP1 &amp;lt;-&amp;gt; R3 (5.0.0.2 - 5.0.0.3/32)&lt;/div&gt;&lt;div&gt;&lt;br&gt;&lt;/div&gt;&lt;div&gt;ISP1 Lo0 (2.2.2.1/24)&lt;/div&gt;" style="text;html=1;strokeColor=none;fillColor=none;spacing=5;spacingTop=-20;whiteSpace=wrap;overflow=hidden;rounded=0;shadow=1;" vertex="1" parent="1">
                    <mxGeometry x="0.6199999999999992" y="550" width="200" height="160" as="geometry"/>
                </mxCell>
                <mxCell id="39" value="&lt;h1&gt;ISP2 (AS12)&lt;/h1&gt;&lt;div&gt;ISP2 &amp;lt;-&amp;gt; R3 (5.0.0.6 - 5.0.0.5/32)&lt;/div&gt;&lt;div&gt;&lt;br&gt;&lt;/div&gt;&lt;div&gt;ISP2 Lo0 (2.2.2.1/24)&lt;/div&gt;" style="text;html=1;strokeColor=none;fillColor=none;spacing=5;spacingTop=-20;whiteSpace=wrap;overflow=hidden;rounded=0;shadow=1;" vertex="1" parent="1">
                    <mxGeometry x="200.62" y="550" width="200" height="160" as="geometry"/>
                </mxCell>
                <mxCell id="40" value="&lt;h1&gt;ISP3 (AS13)&lt;/h1&gt;&lt;div&gt;ISP3 &amp;lt;-&amp;gt; R4 (5.0.0.10 - 5.0.0.9/32)&lt;/div&gt;&lt;div&gt;&lt;br&gt;&lt;/div&gt;&lt;div&gt;ISP3 Lo0 (2.2.2.1/24)&lt;/div&gt;" style="text;html=1;strokeColor=none;fillColor=none;spacing=5;spacingTop=-20;whiteSpace=wrap;overflow=hidden;rounded=0;shadow=1;" vertex="1" parent="1">
                    <mxGeometry x="400" y="550" width="200" height="160" as="geometry"/>
                </mxCell>
                <mxCell id="41" value="&lt;h1&gt;ISP4 (AS14)&lt;/h1&gt;&lt;div&gt;ISP4 &amp;lt;-&amp;gt; R4 (5.0.0.14 - 5.0.0.13/32)&lt;/div&gt;&lt;div&gt;&lt;br&gt;&lt;/div&gt;&lt;div&gt;ISP4 Lo0 (2.2.2.1/24)&lt;/div&gt;" style="text;html=1;strokeColor=none;fillColor=none;spacing=5;spacingTop=-20;whiteSpace=wrap;overflow=hidden;rounded=0;shadow=1;" vertex="1" parent="1">
                    <mxGeometry x="610" y="550" width="200" height="160" as="geometry"/>
                </mxCell>
            </root>
        </mxGraphModel>
    </diagram>
</mxfile>